<svg width="156" height="91" viewBox="0 0 156 91" fill="none" xmlns="http://www.w3.org/2000/svg">
<g clip-path="url(#clip0_11_873)">
<path d="M17.3906 62.1953C14.9531 62.1953 12.6719 61.8047 10.5469 61.0234C8.42188 60.2266 6.57031 59.0781 4.99219 57.5781C3.44531 56.1094 2.22656 54.2969 1.33594 52.1406C0.445312 49.9688 0 47.5859 0 44.9922C0 42.4141 0.445312 40.0312 1.33594 37.8438C2.24219 35.6406 3.50781 33.7344 5.13281 32.125C6.72656 30.5469 8.64062 29.3281 10.875 28.4688C13.1094 27.5938 15.5 27.1562 18.0469 27.1562C19.8906 27.1562 21.5703 27.3828 23.0859 27.8359C24.6016 28.2734 25.8828 28.7734 26.9297 29.3359L28.3828 28.0469H30.4219L30.6328 40.1875H28.5703C27.3984 36.4844 25.9922 33.7656 24.3516 32.0312C22.7109 30.2969 20.7109 29.4297 18.3516 29.4297C15.4141 29.4297 13.1797 30.7266 11.6484 33.3203C10.1172 35.8984 9.35156 39.5234 9.35156 44.1953C9.35156 46.8359 9.60938 49.0938 10.125 50.9688C10.6562 52.8281 11.3438 54.3281 12.1875 55.4688C13.0938 56.6562 14.1641 57.5312 15.3984 58.0938C16.6328 58.6406 18 58.9141 19.5 58.9141C21.6875 58.9141 23.6328 58.3203 25.3359 57.1328C27.0547 55.9453 28.6172 54.1484 30.0234 51.7422L32.0391 52.9609C31.3672 54.3359 30.6016 55.5703 29.7422 56.6641C28.8828 57.7422 27.8906 58.6719 26.7656 59.4531C25.5312 60.3125 24.1641 60.9844 22.6641 61.4688C21.1797 61.9531 19.4219 62.1953 17.3906 62.1953Z" fill="#74AA7F"/>
<path d="M57.9844 40.8203C59.1406 41.8984 60.0234 43.1875 60.6328 44.6875C61.2422 46.1875 61.5469 47.8125 61.5469 49.5625C61.5469 51.2969 61.2422 52.9375 60.6328 54.4844C60.0391 56.0156 59.1641 57.3281 58.0078 58.4219C56.7734 59.5938 55.2969 60.4922 53.5781 61.1172C51.875 61.7422 49.9219 62.0547 47.7188 62.0547C45.8125 62.0547 44.0547 61.7812 42.4453 61.2344C40.8516 60.6875 39.4375 59.8672 38.2031 58.7734C37.0156 57.7266 36.0781 56.4375 35.3906 54.9062C34.7031 53.3594 34.3594 51.6328 34.3594 49.7266C34.3594 47.8516 34.6562 46.1875 35.25 44.7344C35.8594 43.2656 36.7656 41.9609 37.9688 40.8203C39.125 39.7266 40.5469 38.8828 42.2344 38.2891C43.9375 37.6797 45.8359 37.375 47.9297 37.375C50.1172 37.375 52.0391 37.6797 53.6953 38.2891C55.3672 38.8828 56.7969 39.7266 57.9844 40.8203ZM51.9844 57.0625C52.3281 56.1875 52.5781 55.125 52.7344 53.875C52.9062 52.625 52.9922 51.1719 52.9922 49.5156C52.9922 48.4219 52.9141 47.1719 52.7578 45.7656C52.6016 44.3594 52.3672 43.25 52.0547 42.4375C51.6797 41.4531 51.1562 40.6797 50.4844 40.1172C49.8281 39.5547 48.9922 39.2734 47.9766 39.2734C46.8672 39.2734 45.9766 39.5781 45.3047 40.1875C44.6484 40.7969 44.1406 41.5859 43.7812 42.5547C43.4531 43.4453 43.2266 44.4922 43.1016 45.6953C42.9766 46.8828 42.9141 48.125 42.9141 49.4219C42.9141 51.125 42.9688 52.5391 43.0781 53.6641C43.1875 54.7734 43.4531 55.8906 43.875 57.0156C44.2344 57.9844 44.75 58.75 45.4219 59.3125C46.0938 59.875 46.9453 60.1562 47.9766 60.1562C48.9141 60.1562 49.7188 59.8984 50.3906 59.3828C51.0625 58.8516 51.5938 58.0781 51.9844 57.0625Z" fill="#74AA7F"/>
<path d="M86.7422 28.9844C86.7422 29.375 86.6797 29.8047 86.5547 30.2734C86.4297 30.7422 86.2266 31.1406 85.9453 31.4688C85.6172 31.8594 85.25 32.1562 84.8438 32.3594C84.4375 32.5625 83.8281 32.6641 83.0156 32.6641C81.7812 32.6641 80.8125 32.2344 80.1094 31.375C79.4062 30.5156 78.6562 29.0859 77.8594 27.0859C77.2344 27.3516 76.7266 28.0391 76.3359 29.1484C75.9453 30.2578 75.75 32.6406 75.75 36.2969V38.1484H82.2188V40.6797H75.7969V56.8281C75.7969 57.4375 75.9375 57.9141 76.2188 58.2578C76.5 58.5859 76.8672 58.8281 77.3203 58.9844C77.6953 59.1094 78.1875 59.2344 78.7969 59.3594C79.4062 59.4688 79.9531 59.5469 80.4375 59.5938V61.3047H64.6172V59.5938C65.0234 59.5625 65.4141 59.5234 65.7891 59.4766C66.1797 59.4297 66.5234 59.3516 66.8203 59.2422C67.3203 59.0547 67.6562 58.7891 67.8281 58.4453C68.0156 58.0859 68.1094 57.6172 68.1094 57.0391V40.6797H63.3516V38.1484H68.1094C68.1094 36.4766 68.3516 34.8594 68.8359 33.2969C69.3203 31.7187 70.0703 30.3125 71.0859 29.0781C72.0703 27.8594 73.3672 26.875 74.9766 26.125C76.5859 25.375 78.4766 25 80.6484 25C82.5859 25 84.0859 25.3672 85.1484 26.1016C86.2109 26.8359 86.7422 27.7969 86.7422 28.9844Z" fill="#74AA7F"/>
<path d="M105.633 28.9844C105.633 29.375 105.57 29.8047 105.445 30.2734C105.32 30.7422 105.117 31.1406 104.836 31.4688C104.508 31.8594 104.141 32.1562 103.734 32.3594C103.328 32.5625 102.719 32.6641 101.906 32.6641C100.672 32.6641 99.7031 32.2344 99 31.375C98.2969 30.5156 97.5469 29.0859 96.75 27.0859C96.125 27.3516 95.6172 28.0391 95.2266 29.1484C94.8359 30.2578 94.6406 32.6406 94.6406 36.2969V38.1484H101.109V40.6797H94.6875V56.8281C94.6875 57.4375 94.8281 57.9141 95.1094 58.2578C95.3906 58.5859 95.7578 58.8281 96.2109 58.9844C96.5859 59.1094 97.0781 59.2344 97.6875 59.3594C98.2969 59.4688 98.8438 59.5469 99.3281 59.5938V61.3047H83.5078V59.5938C83.9141 59.5625 84.3047 59.5234 84.6797 59.4766C85.0703 59.4297 85.4141 59.3516 85.7109 59.2422C86.2109 59.0547 86.5469 58.7891 86.7188 58.4453C86.9062 58.0859 87 57.6172 87 57.0391V40.6797H82.2422V38.1484H87C87 36.4766 87.2422 34.8594 87.7266 33.2969C88.2109 31.7187 88.9609 30.3125 89.9766 29.0781C90.9609 27.8594 92.2578 26.875 93.8672 26.125C95.4766 25.375 97.3672 25 99.5391 25C101.477 25 102.977 25.3672 104.039 26.1016C105.102 26.8359 105.633 27.7969 105.633 28.9844Z" fill="#74AA7F"/>
<path d="M127.547 55.7031C127 56.5938 126.336 57.4375 125.555 58.2344C124.789 59.0156 123.914 59.6875 122.93 60.25C121.883 60.8438 120.82 61.2891 119.742 61.5859C118.68 61.8984 117.453 62.0547 116.062 62.0547C113.75 62.0547 111.75 61.7266 110.062 61.0703C108.391 60.4141 107.008 59.5312 105.914 58.4219C104.82 57.3125 104 56.0078 103.453 54.5078C102.922 52.9922 102.656 51.3516 102.656 49.5859C102.656 47.9922 102.945 46.4688 103.523 45.0156C104.117 43.5469 104.953 42.2422 106.031 41.1016C107.094 39.9922 108.43 39.0938 110.039 38.4062C111.664 37.7188 113.477 37.375 115.477 37.375C117.664 37.375 119.461 37.6406 120.867 38.1719C122.273 38.7031 123.438 39.4375 124.359 40.375C125.25 41.2656 125.898 42.3203 126.305 43.5391C126.711 44.7422 126.914 46.0078 126.914 47.3359V48.8594H111.07C111.07 52.0625 111.688 54.5 112.922 56.1719C114.156 57.8438 116.117 58.6797 118.805 58.6797C120.273 58.6797 121.594 58.2812 122.766 57.4844C123.938 56.6719 124.938 55.6484 125.766 54.4141L127.547 55.7031ZM118.594 46.7969C118.594 45.8594 118.547 44.8984 118.453 43.9141C118.359 42.9297 118.195 42.125 117.961 41.5C117.695 40.7656 117.328 40.2109 116.859 39.8359C116.406 39.4609 115.828 39.2734 115.125 39.2734C113.922 39.2734 112.961 39.8828 112.242 41.1016C111.523 42.3203 111.133 44.25 111.07 46.8906L118.594 46.7969Z" fill="#74AA7F"/>
<path d="M155.016 55.7031C154.469 56.5938 153.805 57.4375 153.023 58.2344C152.258 59.0156 151.383 59.6875 150.398 60.25C149.352 60.8438 148.289 61.2891 147.211 61.5859C146.148 61.8984 144.922 62.0547 143.531 62.0547C141.219 62.0547 139.219 61.7266 137.531 61.0703C135.859 60.4141 134.477 59.5312 133.383 58.4219C132.289 57.3125 131.469 56.0078 130.922 54.5078C130.391 52.9922 130.125 51.3516 130.125 49.5859C130.125 47.9922 130.414 46.4688 130.992 45.0156C131.586 43.5469 132.422 42.2422 133.5 41.1016C134.562 39.9922 135.898 39.0938 137.508 38.4062C139.133 37.7188 140.945 37.375 142.945 37.375C145.133 37.375 146.93 37.6406 148.336 38.1719C149.742 38.7031 150.906 39.4375 151.828 40.375C152.719 41.2656 153.367 42.3203 153.773 43.5391C154.18 44.7422 154.383 46.0078 154.383 47.3359V48.8594H138.539C138.539 52.0625 139.156 54.5 140.391 56.1719C141.625 57.8438 143.586 58.6797 146.273 58.6797C147.742 58.6797 149.062 58.2812 150.234 57.4844C151.406 56.6719 152.406 55.6484 153.234 54.4141L155.016 55.7031ZM146.062 46.7969C146.062 45.8594 146.016 44.8984 145.922 43.9141C145.828 42.9297 145.664 42.125 145.43 41.5C145.164 40.7656 144.797 40.2109 144.328 39.8359C143.875 39.4609 143.297 39.2734 142.594 39.2734C141.391 39.2734 140.43 39.8828 139.711 41.1016C138.992 42.3203 138.602 44.25 138.539 46.8906L146.062 46.7969Z" fill="#74AA7F"/>
<path d="M88.9531 82.9844C88.6406 83.8438 88.2187 84.7266 87.6875 85.6328C87.1718 86.5391 86.5937 87.3438 85.9531 88.0469C85.1562 88.9219 84.289 89.625 83.3515 90.1563C82.4297 90.6719 81.4453 90.9297 80.3984 90.9297C79.2109 90.9297 78.125 90.7266 77.1406 90.3204C76.1718 89.8985 75.2344 89.4219 74.3281 88.8907C73.6094 88.4532 72.7812 88 71.8437 87.5313C70.9062 87.0625 70.0703 86.8282 69.3359 86.8282C68.3047 86.8282 67.4062 87.2032 66.6406 87.9532C65.875 88.6875 65.1406 89.8672 64.4375 91.4922L62 90.5078C62.2344 89.8204 62.6015 89.0157 63.1015 88.0938C63.6172 87.1719 64.25 86.2891 65 85.4454C65.7031 84.6485 66.5312 83.9688 67.4844 83.4063C68.4531 82.8438 69.4765 82.5625 70.5547 82.5625C71.8359 82.5625 72.9687 82.7891 73.9531 83.2422C74.9531 83.6797 75.8594 84.1407 76.6718 84.625C77.5 85.125 78.3125 85.5938 79.1094 86.0313C79.9218 86.4532 80.7578 86.6641 81.6172 86.6641C82.7109 86.6641 83.6406 86.2578 84.4062 85.4454C85.1718 84.6172 85.875 83.4688 86.5156 82L88.9531 82.9844Z" fill="#74AA7F"/>
<path d="M88.9531 0.984398C88.6406 1.8438 88.2187 2.7266 87.6875 3.6328C87.1718 4.5391 86.5937 5.3438 85.9531 6.0469C85.1562 6.9219 84.289 7.625 83.3515 8.1563C82.4297 8.6719 81.4453 8.9297 80.3984 8.9297C79.2109 8.9297 78.125 8.7266 77.1406 8.3204C76.1718 7.8985 75.2344 7.4219 74.3281 6.8907C73.6094 6.4532 72.7812 6 71.8437 5.5313C70.9062 5.0625 70.0703 4.8282 69.3359 4.8282C68.3047 4.8282 67.4062 5.2032 66.6406 5.9532C65.875 6.6875 65.1406 7.8672 64.4375 9.4922L62 8.5078C62.2344 7.8204 62.6015 7.0157 63.1015 6.0938C63.6172 5.1719 64.25 4.2891 65 3.4454C65.7031 2.6485 66.5312 1.9688 67.4844 1.4063C68.4531 0.843803 69.4765 0.5625 70.5547 0.5625C71.8359 0.5625 72.9687 0.789103 73.9531 1.2422C74.9531 1.6797 75.8594 2.1407 76.6718 2.625C77.5 3.125 78.3125 3.5938 79.1094 4.0313C79.9218 4.4532 80.7578 4.6641 81.6172 4.6641C82.7109 4.6641 83.6406 4.2578 84.4062 3.4454C85.1718 2.6172 85.875 1.4688 86.5156 0L88.9531 0.984398Z" fill="#74AA7F"/>
</g>
<defs>
<clipPath id="clip0_11_873">
<rect width="156" height="91" fill="white"/>
</clipPath>
</defs>
</svg>
