<svg width="133" height="133" viewBox="0 0 133 133" fill="none" xmlns="http://www.w3.org/2000/svg">
<path d="M33.25 33.2499C51.6135 14.8864 81.3865 14.8864 99.75 33.2499C118.113 51.6134 118.113 81.3864 99.75 99.7499L76.3995 123.101C70.9322 128.568 62.0678 128.568 56.6005 123.101L33.25 99.7499C14.8865 81.3864 14.8865 51.6134 33.25 33.2499Z" fill="#00643E"/>
<path d="M66.2699 92.9055C78.0169 92.9055 87.5398 81.3682 87.5398 67.1362C87.5398 52.9043 78.0169 41.3669 66.2699 41.3669C54.5229 41.3669 45 52.9043 45 67.1362C45 81.3682 54.5229 92.9055 66.2699 92.9055Z" stroke="white" stroke-width="4.37805"/>
<path d="M65.0683 41.325C66.056 41.4264 68.3878 43.3314 69.8132 50.1403C71.595 58.6514 56.6497 73.9067 64.5506 90.0417" stroke="white" stroke-width="4.37805"/>
<path d="M63.8157 87.9971C65.4519 90.1786 69.7058 93.8872 73.6326 91.2694" stroke="white" stroke-width="4.37805"/>
</svg>
