<svg width="209" height="183" viewBox="0 0 209 183" fill="none" xmlns="http://www.w3.org/2000/svg">
<g clip-path="url(#clip0_17_887)">
<path d="M175.289 38.1966C181.312 38.7822 193.91 36.8415 196.118 24.3939C198.327 11.9463 204.233 8.49983 206.91 8.33252" stroke="#F3603F" stroke-width="3" stroke-linecap="round"/>
<path d="M121.803 149.189C155.061 149.189 182.021 122.228 182.021 88.9702C182.021 55.7124 155.061 28.7517 121.803 28.7517C88.5452 28.7517 61.5845 55.7124 61.5845 88.9702C61.5845 122.228 88.5452 149.189 121.803 149.189Z" fill="#1AA570"/>
<g filter="url(#filter0_d_17_887)">
<path d="M121.803 140.623C150.33 140.623 173.456 117.497 173.456 88.9702C173.456 60.443 150.33 37.3171 121.803 37.3171C93.2758 37.3171 70.1499 60.443 70.1499 88.9702C70.1499 117.497 93.2758 140.623 121.803 140.623Z" stroke="white" stroke-opacity="0.7" stroke-width="2"/>
</g>
<path d="M148.563 75.7962C148.563 77.4359 147.92 79.0191 146.75 80.1499L119.551 106.498C118.322 107.629 116.684 108.307 114.988 108.307C113.292 108.307 111.654 107.629 110.484 106.498L96.8554 93.3239C95.6855 92.1931 95.0421 90.61 95.0421 88.9703C95.0421 87.3306 95.744 85.804 96.9139 84.6166C98.1422 83.4858 99.7215 82.8639 101.418 82.8073C103.114 82.8073 104.693 83.4293 105.922 84.5601L114.988 93.3239L137.683 71.386C138.912 70.2552 140.491 69.6333 142.187 69.6333C143.884 69.6898 145.463 70.3118 146.691 71.4991C147.861 72.6299 148.563 74.1566 148.563 75.7962Z" fill="white"/>
<path d="M166.89 149.189C172.512 150.813 183.381 156.984 181.881 168.676" stroke="#F7B23B" stroke-width="3" stroke-linecap="round" stroke-linejoin="round"/>
<path d="M2 132.688C10.6268 135.937 29.2248 138.267 34.6026 121.597M34.6026 121.597C35.3869 117.003 34.6027 107.917 25.1917 108.32C23.399 112.746 22.7715 121.597 34.6026 121.597ZM34.6026 121.597C38.5239 122.325 47.6437 121.63 52.7526 113.026" stroke="#6E89FA" stroke-width="3" stroke-linecap="round" stroke-linejoin="round"/>
<path d="M138.9 183C142.088 183 144.672 180.416 144.672 177.228C144.672 174.04 142.088 171.456 138.9 171.456C135.712 171.456 133.128 174.04 133.128 177.228C133.128 180.416 135.712 183 138.9 183Z" fill="#637BFE"/>
<path d="M193.467 91.0962C196.379 91.0962 198.739 88.7358 198.739 85.8241C198.739 82.9124 196.379 80.552 193.467 80.552C190.555 80.552 188.195 82.9124 188.195 85.8241C188.195 88.7358 190.555 91.0962 193.467 91.0962Z" stroke="#C05EFD"/>
<path d="M101.841 12.6418C105.332 12.6418 108.162 9.81187 108.162 6.32092C108.162 2.82997 105.332 0 101.841 0C98.35 0 95.52 2.82997 95.52 6.32092C95.52 9.81187 98.35 12.6418 101.841 12.6418Z" fill="#53B175"/>
<path d="M119.787 20.3279C121.631 20.3279 123.125 18.8334 123.125 16.9898C123.125 15.1461 121.631 13.6516 119.787 13.6516C117.943 13.6516 116.449 15.1461 116.449 16.9898C116.449 18.8334 117.943 20.3279 119.787 20.3279Z" fill="#F3603F"/>
<path d="M46.2133 71.3632C49.1681 71.3632 51.5634 68.9679 51.5634 66.0131C51.5634 63.0584 49.1681 60.6631 46.2133 60.6631C43.2586 60.6631 40.8633 63.0584 40.8633 66.0131C40.8633 68.9679 43.2586 71.3632 46.2133 71.3632Z" stroke="#F7B23B"/>
<path d="M59.6505 164.19C62.9269 164.19 65.583 161.534 65.583 158.257C65.583 154.981 62.9269 152.324 59.6505 152.324C56.374 152.324 53.7179 154.981 53.7179 158.257C53.7179 161.534 56.374 164.19 59.6505 164.19Z" stroke="#53B175"/>
<path d="M120.953 173.682C119.256 173.682 117.88 172.306 117.88 170.609C117.88 168.912 119.256 167.536 120.953 167.536C122.65 167.536 124.026 168.912 124.026 170.609C124.026 172.306 122.65 173.682 120.953 173.682Z" fill="#53B175"/>
</g>
<defs>
<filter id="filter0_d_17_887" x="65.1499" y="35.3171" width="113.306" height="113.306" filterUnits="userSpaceOnUse" color-interpolation-filters="sRGB">
<feFlood flood-opacity="0" result="BackgroundImageFix"/>
<feColorMatrix in="SourceAlpha" type="matrix" values="0 0 0 0 0 0 0 0 0 0 0 0 0 0 0 0 0 0 127 0" result="hardAlpha"/>
<feOffset dy="3"/>
<feGaussianBlur stdDeviation="2"/>
<feColorMatrix type="matrix" values="0 0 0 0 0 0 0 0 0 0 0 0 0 0 0 0 0 0 0.12 0"/>
<feBlend mode="normal" in2="BackgroundImageFix" result="effect1_dropShadow_17_887"/>
<feBlend mode="normal" in="SourceGraphic" in2="effect1_dropShadow_17_887" result="shape"/>
</filter>
<clipPath id="clip0_17_887">
<rect width="209" height="183" fill="white"/>
</clipPath>
</defs>
</svg>
